<mxfile host="Electron" modified="2023-08-18T14:48:42.449Z" agent="Mozilla/5.0 (Windows NT 10.0; Win64; x64) AppleWebKit/537.36 (KHTML, like Gecko) draw.io/21.6.8 Chrome/114.0.5735.289 Electron/25.5.0 Safari/537.36" etag="4TCQxTZeaAtX0-qJDWVa" version="21.6.8" type="device">
  <diagram name="16.38" id="AEs_RI3MaH2ZZ9K02o9E">
    <mxGraphModel dx="877" dy="511" grid="1" gridSize="10" guides="1" tooltips="1" connect="1" arrows="1" fold="1" page="1" pageScale="1" pageWidth="1169" pageHeight="827" math="0" shadow="0">
      <root>
        <mxCell id="0" />
        <mxCell id="1" parent="0" />
        <mxCell id="D7UalZV0Xc1LNCALaWtM-1" value="Action" style="shape=mxgraph.uml25.action;html=1;align=center;verticalAlign=middle;absoluteArcSize=1;arcSize=10;dashed=0;spacingRight=10;whiteSpace=wrap;fontFamily=Helvetica;fontSize=11;fontColor=default;" vertex="1" parent="1">
          <mxGeometry x="120" width="70" height="40" as="geometry" />
        </mxCell>
        <mxCell id="D7UalZV0Xc1LNCALaWtM-2" value="VariableName" style="text;verticalAlign=middle;align=left;html=1;fontSize=11;fontFamily=Helvetica;fontColor=default;" vertex="1" parent="D7UalZV0Xc1LNCALaWtM-1">
          <mxGeometry x="70" width="38.18181818181818" height="30" as="geometry" />
        </mxCell>
        <mxCell id="D7UalZV0Xc1LNCALaWtM-7" value="" style="edgeStyle=orthogonalEdgeStyle;shape=connector;rounded=0;orthogonalLoop=1;jettySize=auto;html=1;labelBackgroundColor=default;strokeColor=default;fontFamily=Helvetica;fontSize=11;fontColor=default;endArrow=openThin;endFill=0;endSize=12;" edge="1" parent="1" source="D7UalZV0Xc1LNCALaWtM-3" target="D7UalZV0Xc1LNCALaWtM-6">
          <mxGeometry relative="1" as="geometry" />
        </mxCell>
        <mxCell id="D7UalZV0Xc1LNCALaWtM-3" value="Action" style="shape=mxgraph.uml25.action;html=1;align=center;verticalAlign=middle;absoluteArcSize=1;arcSize=10;dashed=0;spacingRight=10;whiteSpace=wrap;fontFamily=Helvetica;fontSize=11;fontColor=default;" vertex="1" parent="1">
          <mxGeometry y="80" width="70" height="40" as="geometry" />
        </mxCell>
        <mxCell id="D7UalZV0Xc1LNCALaWtM-10" style="edgeStyle=orthogonalEdgeStyle;shape=connector;rounded=0;orthogonalLoop=1;jettySize=auto;html=1;entryX=0;entryY=0.5;entryDx=0;entryDy=0;labelBackgroundColor=default;strokeColor=default;fontFamily=Helvetica;fontSize=11;fontColor=default;endArrow=openThin;endFill=0;endSize=12;" edge="1" parent="1" source="D7UalZV0Xc1LNCALaWtM-6" target="D7UalZV0Xc1LNCALaWtM-9">
          <mxGeometry relative="1" as="geometry" />
        </mxCell>
        <mxCell id="D7UalZV0Xc1LNCALaWtM-6" value="Add to&lt;br&gt;Variable Name" style="shape=mxgraph.uml25.action;html=1;align=center;verticalAlign=middle;absoluteArcSize=1;arcSize=10;dashed=0;spacingRight=10;whiteSpace=wrap;fontFamily=Helvetica;fontSize=11;fontColor=default;" vertex="1" parent="1">
          <mxGeometry x="120" y="80" width="100" height="40" as="geometry" />
        </mxCell>
        <mxCell id="D7UalZV0Xc1LNCALaWtM-9" value="" style="shape=sumEllipse;perimeter=ellipsePerimeter;html=1;backgroundOutline=1;fontFamily=Helvetica;fontSize=11;fontColor=default;" vertex="1" parent="1">
          <mxGeometry x="280" y="85" width="30" height="30" as="geometry" />
        </mxCell>
        <mxCell id="D7UalZV0Xc1LNCALaWtM-11" value="&lt;b&gt;Figure 16.38 Presentation option for AddVariableValueAction&lt;/b&gt;" style="text;html=1;align=left;verticalAlign=middle;resizable=0;points=[];autosize=1;strokeColor=none;fillColor=none;fontSize=11;fontFamily=Helvetica;fontColor=default;" vertex="1" parent="1">
          <mxGeometry y="120" width="340" height="30" as="geometry" />
        </mxCell>
      </root>
    </mxGraphModel>
  </diagram>
</mxfile>
